<svg width="203" height="255" viewBox="0 0 203 255" fill="none" xmlns="http://www.w3.org/2000/svg">
<path d="M24.2368 146.308C37.1126 145.483 46.1598 153.007 47.1877 165.038L38.3666 165.053C37.7327 159.37 34.7057 154.903 28.1439 154.426C25.0763 154.204 22.0479 155.189 19.7871 157.145C17.5137 159.068 16.1998 161.793 16.1625 164.663C16.1327 169.458 19.901 174.941 23.2299 178.252C32.4486 187.502 47.3173 189.569 57.293 180.122C65.3507 172.489 63.4408 162.365 63.4686 152.331L139.43 152.359C139.385 160.187 138.223 170.707 142.979 177.029C146.184 181.284 150.81 184.804 156.321 185.851C162.618 187.023 169.158 185.794 174.487 182.44C181.558 177.997 191.244 166.797 184.85 158.779C182.937 156.376 180.049 154.822 176.869 154.485C169.439 153.744 165.353 158.6 164.735 165.049L155.683 165.042C157.428 140.288 194.615 140.053 195.353 164.956C195.551 171.596 190.393 180.082 185.465 184.716C169.349 199.869 140.816 196.977 132.57 175.712C130.375 170.073 130.569 166.458 130.659 160.557L122.582 160.584C122.831 169.309 123.168 178.683 129.109 185.894C134.7 192.665 141.398 197.86 147.738 203.985C158.308 214.191 169.97 227.966 186.21 217.101C192.057 213.189 193.559 207.654 194.437 201.19L203 201.205C202.854 204.41 202.773 207.002 201.711 210.064C196.651 224.658 180.363 232.236 164.91 227.396C161.702 226.385 158.69 224.889 155.994 222.971C152.034 220.158 144.212 212.607 140.521 209.014C132.91 201.606 122.766 193.56 117.959 184.373C113.766 174.756 113.996 170.753 114.047 160.579L105.678 160.581C105.62 174.461 107.64 185.818 117.117 197.196C118.914 199.35 121.135 200.85 122.935 202.792C128.542 208.835 135.568 213.712 140.567 220.164C146.427 228.227 149.751 238.977 142.658 247.49C126.431 266.971 93.7705 244.728 111.83 224.203L117.822 229.733C114.847 234.649 114.035 238.783 118.305 243.463C120.176 245.541 122.866 246.816 125.758 246.992C132.297 247.411 137.931 242.446 137.963 236.279C138.09 228.389 130.708 221.223 124.647 216.133C104.27 199.017 97.0727 187.144 97.241 160.582L89.0196 160.584C89.1983 176.37 87.4201 184.865 75.6552 196.671C72.6507 199.684 68.2837 203.014 65.6548 205.827C62.2631 209.457 58.6138 212.261 55.3633 215.454C48.1638 222.838 41.1381 228.428 29.9801 228.771C18.2179 229.132 8.70933 223.809 3.09276 214.176C0.508535 209.742 0.124971 206.179 0 201.184H8.69023C9.36073 212.012 15.6899 220 27.9532 220.895C39.3547 221.73 47.0774 211.314 54.3775 204.786C60.4117 199.22 66.6997 193.624 72.4306 187.782C79.7854 180.283 80.1393 170 80.4077 160.584C77.7543 160.546 75.0154 160.588 72.3545 160.596C72.4429 167.025 72.6053 171.863 69.4678 177.778C65.4086 185.429 60.3182 190.252 51.5236 192.938C43.2157 195.417 34.0875 194.34 26.3739 190.674C13.5671 184.583 2.61893 168.642 10.2024 155.433C13.2406 150.141 18.3926 147.976 24.2368 146.308Z" fill="#141316"/>
<path d="M93.2732 185.356C93.3201 185.57 97.5224 194.213 98.0113 195.144C93.9935 203.059 80.0963 213.954 73.6836 220.567C70.8669 223.296 68.5982 225.618 66.8516 229.065C63.6541 235.381 64.2272 243.457 72.3046 246.179C75.4476 247.244 78.9239 247.014 81.8762 245.548C84.4349 244.297 86.3298 242.115 87.112 239.511C88.3467 235.523 87.0103 233.004 85.0788 229.684L90.9993 224.249C94.0481 227.323 95.3401 229.933 96.2499 234.003C98.4642 256.036 66.5017 263.165 57.8774 243.317C49.7623 224.64 74.1231 209.991 85.1652 198.121C88.4159 194.629 91.2592 189.65 93.2732 185.356Z" fill="#141316"/>
<path fill-rule="evenodd" clip-rule="evenodd" d="M98.5224 0.0671437C101.323 -0.0135845 103.221 -0.0577575 105.995 0.151043C108.763 1.80026 112.146 5.55421 114.584 7.854L125.997 18.5313L172.829 62.4549C174.321 68.3064 172.566 69.2507 167.82 73.0718C144.448 91.8803 140.009 118.936 139.449 146.248H130.559C130.559 143.602 130.785 140.774 130.947 138.119C119.891 146.423 110.375 146.285 96.9621 146.225C96.5347 121.873 110.133 103.849 137.235 102.803C139.692 95.8138 141.104 93.3474 144.668 86.6983C141.444 81.279 138.814 76.1107 135.762 70.7005L118.748 40.4846C114.199 32.2867 110.822 25.5998 105.684 17.6008L105.665 62.6318L105.674 72.0362C107.283 72.7791 108.465 73.2563 109.556 74.6429C112.914 78.9145 111.981 85.5347 107.261 88.5878C104.965 90.0916 102.107 90.6367 99.3678 90.0935C96.6515 89.5205 94.3106 87.9198 92.8993 85.6716C89.6297 80.3964 91.7292 74.8723 97.2437 71.973L97.2275 17.4916C91.5385 26.0554 87.4015 35.4566 82.1534 44.279C76.9095 53.095 72.3723 62.1635 67.0792 70.9874C64.0032 76.1152 61.6048 81.5659 58.3494 86.7529C69.1496 105.152 72.2484 125.54 72.3523 146.232L63.4673 146.218C63.6084 127.401 61.1893 109.668 51.8012 92.7535C47.3233 84.6858 42.9298 79.9761 36.0059 73.6912C30.9174 69.0724 28.9618 69.5356 30.0399 62.6146C38.1446 55.2071 46.3739 47.2151 54.3788 39.651L73.5509 21.8264L87.0827 9.16031C89.7935 6.59222 94.9028 0.785641 98.5224 0.0671437ZM134.476 111.294C133.799 111.008 134.165 111.079 133.378 111.11C129.292 111.849 122.209 113.681 119.152 116.341L119.068 116.718C119.822 116.678 120.101 116.595 120.797 116.743C117.951 120.924 118.301 121.228 122.626 123.905C124.274 122.752 124.919 122.308 126.353 120.904C126.469 124.467 126.534 126.796 123.75 129.639C120.926 132.523 115.834 132.178 113.017 129.514C112.217 128.758 110.809 126.539 109.961 126.426L109.527 126.87C107.073 131.529 106.257 133.325 105.499 138.476C113.606 138.087 121.341 136.334 126.981 130.422C128.263 129.073 129.35 127.573 130.218 125.961C131.435 123.709 134.884 113.697 134.476 111.294ZM119.219 24.0782C121.9 27.2945 127.864 39.2618 130.227 43.5221L144.524 69.0401C146.467 72.4926 148.422 75.6197 150.258 79.155C152.197 76.6221 154.163 73.8838 156.503 71.6866C158.922 69.5367 161.538 67.577 164.112 65.5912C150.469 51.8465 134.867 39.0672 121.201 25.283C120.686 24.7619 119.935 24.3085 119.219 24.0782ZM83.2606 23.8896C80.3304 26.2793 77.8858 29.043 75.1643 31.6445L62.0837 43.9768C54.9388 50.8207 45.8707 58.5964 39.0397 65.5511C41.4785 67.4965 44.7996 69.9993 46.9736 72.1007C49.1499 74.3799 50.8146 76.5358 52.7452 78.9849C54.9273 74.8909 57.3699 71.1694 59.6443 67.1601L72.0684 44.9015C75.6724 38.4694 79.4461 30.3463 83.5688 24.3506L83.2606 23.8896Z" fill="#141316"/>
</svg>
