<svg width="89" height="97" viewBox="0 0 89 97" fill="none" xmlns="http://www.w3.org/2000/svg">
<path d="M87.1968 57.7181L87.1578 57.6517C83.7234 51.3746 76.2114 48.3066 69.6116 49.9215C61.2069 51.8146 56.182 59.3082 50.4087 65.3486C46.3662 69.5209 41.8403 73.9091 36.1137 75.0923C33.3147 75.6694 30.2585 75.6445 27.4478 74.8266L27.1476 74.7353C25.0036 74.0627 23.0116 72.9169 21.4094 71.2023C18.166 67.3954 16.8133 61.8821 16.903 56.8837C17.0121 50.7892 20.8402 45.8655 24.7619 41.6682C26.9137 39.4638 29.319 37.2552 31.2408 34.814C33.8371 31.3475 34.952 26.8846 36.1994 22.6542C37.2871 18.0003 37.0298 12.7486 34.7259 8.53893C31.3149 2.10404 23.6665 -1.36665 16.9731 0.5057C11.6169 1.96289 6.3581 7.65466 6.67776 13.9235C6.79471 16.5805 8.01487 19.2956 10.0459 20.6573C11.1686 21.4253 12.7708 21.8405 14.0494 21.5665C15.293 21.1804 13.1138 19.719 12.5954 18.9676C12.0223 18.32 11.5272 17.5187 11.3011 16.5556C10.7047 14.156 11.5935 11.4367 13.1606 9.65985C16.8835 5.30488 23.9082 7.25611 25.8105 12.5908C27.6076 17.087 25.8144 22.5089 22.7465 25.9671C18.6806 30.7414 13.2347 34.0086 9.46893 39.1109C3.97235 45.9941 1.71524 55.1815 3.09524 64.1447C4.17506 72.8837 8.92707 81.0124 16.2013 85.2968C19.2848 87.0737 22.3021 88.5724 25.8144 89.7929C28.9292 90.8765 31.2564 91.1339 34.3595 90.5817C36.1566 90.2994 38.0706 90.0835 39.8716 89.4027C41.1737 88.9294 42.425 88.2652 43.6608 87.63C45.4774 86.6502 47.4343 85.8656 48.9663 84.479C49.9916 83.5324 51.0129 82.7062 52.0304 81.7472C53.3051 80.5059 54.8099 79.1235 55.991 77.6829C56.6537 76.8858 57.2892 76.1468 57.8856 75.2999C59.71 72.6138 62.2049 70.2641 64.2086 67.6278C65.23 66.2703 66.2123 64.9875 67.3779 63.796C70.5199 59.8852 74.2272 56.8048 78.9675 59.9807C83.7429 63.0902 83.8637 71.2563 78.7999 74.0544C78.219 74.5734 74.4494 75.3123 75.1745 76.1219C76.5779 77.276 79.3885 77.4878 81.2051 76.9024C88.5807 74.7311 91.0522 64.2651 87.1929 57.7181H87.1968ZM14.0377 54.9407L14.0533 54.8411C14.1547 53.5458 15.4996 50.9677 16.3689 53.139C16.938 54.6377 16.4858 57.6185 15.5658 58.5982C15.3319 58.8598 15.024 59.0092 14.7316 58.8017C13.8389 57.9091 13.8818 56.2028 14.0377 54.9407ZM17.9204 66.6605C17.8619 67.2168 17.6085 67.8977 17.0121 67.8354L16.9614 67.8271C15.4723 67.3704 14.6575 64.6802 14.6225 63.1027C14.6069 62.3222 14.868 61.3424 15.6906 61.5707C17.0511 62.0233 18.1465 65.1535 17.9243 66.6564L17.9204 66.6605ZM17.0823 49.6184C16.3026 49.5437 16.1779 48.6055 16.3299 47.879C16.6418 46.3719 18.1075 44.2713 19.6006 44.2713L19.6551 44.2796C21.6394 45.0559 18.5402 49.8717 17.0823 49.6184ZM26.1341 39.003C25.678 40.4601 23.6587 42.2661 22.3489 42.2993C21.5848 42.374 21.1872 41.6973 21.4444 40.9168C21.7602 39.7876 22.7036 38.7954 23.6821 38.1851L23.7639 38.1353C24.7619 37.4337 26.7227 37.1597 26.138 39.003H26.1341ZM32.0868 32.4269C31.7632 33.8716 29.9856 35.9018 28.6641 36.1924C27.4127 36.5037 27.132 35.3496 27.6505 34.291C28.2976 32.8421 30.1259 31.0029 31.6424 31.223L31.693 31.2396C32.1686 31.3973 32.2037 31.9702 32.0868 32.4269ZM21.7992 85.9984L21.768 86.015C21.6238 86.0898 21.2183 85.9154 21.1911 85.8158C21.156 85.6497 21.9278 85.8697 21.7992 85.9984ZM33.1744 89.5687L33.1471 89.6103C32.1335 90.6938 29.662 90.4572 28.321 89.9673C27.4634 89.6808 26.711 88.726 27.7324 88.1489C28.8746 87.4349 32.0556 87.6549 33.0613 88.7592C33.264 88.9917 33.3459 89.2906 33.1783 89.5646L33.1744 89.5687ZM42.1287 87.1816C41.3959 88.5309 39.4311 89.1536 38.0355 89.2076H37.9498C36.5737 89.2366 35.7901 88.1655 37.0025 87.1567C37.9888 86.3098 39.7937 85.7203 41.0294 85.8697C41.6765 85.9112 42.4874 86.3928 42.1248 87.1816H42.1287ZM48.3036 84.4416L48.2217 84.4997C47.1692 85.4297 43.7504 86.26 44.8419 83.7815C45.5358 82.3907 47.7851 80.9335 49.2548 80.7675C49.7109 80.7135 50.2917 80.7675 50.4165 81.2989C50.4906 82.6232 49.2821 83.6819 48.2997 84.4416H48.3036ZM55.0827 78.1479L55.0087 78.2143C51.3287 81.2615 51.0675 77.7908 53.6949 75.3995C54.7631 74.3782 56.8837 73.2739 56.8525 75.1338C56.7356 76.2174 55.8819 77.3881 55.0827 78.1479ZM61.1718 70.5132C60.1622 71.9496 57.4568 73.5064 57.9402 70.8245C58.3768 69.2802 59.8191 67.0549 61.4837 66.8723C61.4837 66.8723 63.811 66.6896 61.1679 70.5132H61.1718ZM65.3118 64.7384L65.2455 64.8089C64.7855 65.3777 62.7 66.7519 62.813 65.1867C62.9806 64.1406 64.3996 62.3388 65.6939 62.1603C67.0427 62.1976 65.8693 64.2028 65.3118 64.7342V64.7384ZM67.4442 61.0892C66.5554 60.0513 69.6662 58.3076 70.2782 59.2168L70.3016 59.2583C70.5706 60.3211 68.2784 61.6455 67.4481 61.0892H67.4442Z" fill="white"/>
<path d="M62.9261 70.2765L62.9417 70.2973L62.9612 70.2765H62.9261Z" fill="white"/>
<path d="M62.9417 70.2973C62.6376 70.617 58.7783 74.6896 57.9324 76.014C56.9773 77.5085 54.4278 80.1115 54.4278 80.1115C58.5561 86.4426 62.5674 92.645 65.421 97H81.1544L62.9417 70.2973Z" fill="white"/>
<path d="M48.444 49.0455L80.3787 3.58614H66.0369L53.1882 23.0735L40.3394 42.5608L33.7864 31.6298C33.7864 31.6298 32.1452 35.6402 25.9626 40.9542L32.0868 49.743L0 97H15.5775C17.055 94.4883 18.9807 91.3664 21.1131 87.9538L29.4866 74.6523C33.6266 68.0596 37.4703 61.8323 39.5676 57.9174C41.3452 60.3875 43.7504 63.9247 46.4324 67.9517L50.2216 64.4561C50.319 64.3647 50.4126 64.2734 50.5022 64.1738L55.2192 58.976L48.4479 49.0455H48.444Z" fill="white"/>
</svg>
